<?xml version="1.0" encoding="utf-8"?>
<!-- Generator: Adobe Illustrator 26.0.2, SVG Export Plug-In . SVG Version: 6.00 Build 0)  -->
<svg version="1.1" baseProfile="basic" id="Слой_1"
	 xmlns="http://www.w3.org/2000/svg" xmlns:xlink="http://www.w3.org/1999/xlink" x="0px" y="0px" viewBox="0 0 566.93 198.43"
	 xml:space="preserve">
<style type="text/css">
	.st0{fill:none;}
	.st1{fill:#545556;}
	.st2{fill:#575756;stroke:#000000;stroke-width:0.25;stroke-miterlimit:10;}
	.st3{fill:#3AAA35;stroke:#3AAA35;stroke-width:0.25;stroke-miterlimit:10;}
</style>
<g>
	<rect x="191.35" y="48.29" class="st0" width="383.49" height="112.11"/>
	<path class="st1" d="M223.27,112.21h10.08v11.82c0,5.19-0.42,9.41-1.26,12.67c-0.84,3.27-2.16,5.7-3.96,7.31
		c-1.8,1.61-3.7,2.69-5.7,3.27c-2,0.57-4.56,0.86-7.68,0.86c-6.24,0-10.94-1.58-14.1-4.74c-3.16-3.16-4.74-9.56-4.74-19.21V74.11
		c0-8.09,1.62-13.61,4.86-16.56c3.24-2.96,7.94-4.43,14.1-4.43c6.08,0,10.68,1.48,13.8,4.43c3.12,2.95,4.68,8.48,4.68,16.56v17.42
		h-10.08V75.66c0-5.6-0.68-9.33-2.04-11.2c-1.36-1.87-3.52-2.8-6.48-2.8c-2.96,0-5.1,0.93-6.42,2.8c-1.32,1.87-1.98,5.6-1.98,11.2
		v50.23c0,5.6,0.66,9.36,1.98,11.27c1.32,1.92,3.46,2.88,6.42,2.88c2.96,0,5.12-0.96,6.48-2.88c1.36-1.92,2.04-5.68,2.04-11.27
		V112.21z"/>
	<path class="st1" d="M256.99,54.36h12.72l15,91.91h-11.04l-3.36-19.91h-14.64c-0.32,2.28-0.84,5.63-1.56,10.03
		c-0.72,4.41-1.24,7.7-1.56,9.88h-10.68L256.99,54.36z M263.11,71.77l-6.84,47.28h13.44L263.11,71.77z"/>
	<path class="st1" d="M302.59,132.43l-12.84-78.07h10.44l8.76,63.14l9.24-63.14h9.72l-10.8,65.63c-1.68,10.99-3.72,18.38-6.12,22.16
		c-2.4,3.79-6.04,5.68-10.92,5.68c-2.16,0-4.72-0.42-7.68-1.24v-7.62c1.36,0.31,2.64,0.47,3.84,0.47
		C300.38,139.42,302.51,137.09,302.59,132.43z"/>
	<path class="st1" d="M330.78,163.38v-25.66h6.84c4.8,0,7.2-5.39,7.2-16.17c0.08-2.07,0.52-11.59,1.32-28.54
		c0.8-16.95,1.44-29.83,1.92-38.65h31.68v83.36h11.76v25.66h-8.76v-15.24h-43.2v15.24H330.78z M355.02,119.67
		c-0.32,5.08-0.7,8.97-1.14,11.66c-0.44,2.7-1.3,4.82-2.58,6.38h18V63.69h-11.4L355.02,119.67z"/>
	<path class="st1" d="M414.9,54.36h12.72l15,91.91h-11.04l-3.36-19.91h-14.64c-0.32,2.28-0.84,5.63-1.56,10.03
		c-0.72,4.41-1.24,7.7-1.56,9.88h-10.68L414.9,54.36z M421.02,71.77l-6.84,47.28h13.44L421.02,71.77z"/>
	<path class="st1" d="M454.5,145.49c-1.2-1.55-1.8-3.42-1.8-5.6c0-2.18,0.6-4.02,1.8-5.52c1.2-1.5,2.68-2.25,4.44-2.25
		c1.76,0,3.26,0.75,4.5,2.25c1.24,1.5,1.86,3.34,1.86,5.52c0,2.18-0.62,4.04-1.86,5.6c-1.24,1.56-2.74,2.33-4.5,2.33
		C457.18,147.82,455.7,147.04,454.5,145.49z"/>
	<path class="st1" d="M486.06,54.36v41.37l15.6-41.37h11.64l-18,44.17l18.6,47.74h-11.52l-16.32-44.95v44.95h-10.08V54.36H486.06z"
		/>
	<path class="st1" d="M547.98,146.27h-30.36v-8.4l18.96-74.18h-17.64v-9.33h29.04v7.31l-19.44,75.43h19.44V146.27z"/>
</g>
<path id="Левая_серая_рука" class="st2" d="M84.5,44.91c-2.52-0.47-6.07-1-10.34-1.15
	c-3.84-0.14-10.09-0.34-17.04,1.53c-8.51,2.29-14.18,6.54-17.62,9.19c-4.64,3.58-16.24,12.78-21.06,29.68
	c-3.99,13.96-1.28,25.92,0.57,31.79c4.72,14.91,14.33,23.35,18.48,26.9c2.69,2.3,8.37,7.07,17.14,10.24
	c0.77,0.28,4.03,1.44,8.62,2.3c10.45,1.96,21.94,1.27,22.21-0.67c0.21-1.47-6.28-1.91-15.89-7.95c-3.5-2.2-8.35-5.3-12.73-10.91
	c-0.73-0.93-2.59-4.04-6.32-10.24c-1.01-1.69-2.86-4.79-4.6-9.1c-1.49-3.69-1.9-5.77-1.34-7.95c0.24-0.95,0.61-2.6,2.01-3.73
	c2.16-1.74,5.17-1.07,6.51-0.77c1.17,0.26,4.49,1.01,6.7,3.64c0.68,0.81,1.43,2.01,2.78,2.2c0.59,0.08,1.05-0.05,1.81-0.28
	c0.48-0.14,1.23-0.42,3.26-1.71c0.95-0.61,1.19-0.81,2.51-1.64c0.7-0.44,1.17-0.73,1.84-1.01c0.66-0.27,1.24-0.43,1.68-0.53
	c0.77-0.17,1.59-0.35,2.59-0.19c0.82,0.13,1.38,0.43,2.01,0.77c1.23,0.66,2.02,1.45,2.61,2.03c0.77,0.77,1.35,1.53,1.77,2.08
	c1.12,1.46,1.07,1.7,1.46,1.82c0.24,0.07,0.85,0.16,4.02-2.68c1.28-1.15,1.7-1.63,2.68-2.01c0.28-0.11,1.19-0.43,2.39-0.38
	c1.63,0.07,2.78,0.79,3.35,1.15c1.11,0.71,1.86,1.81,3.35,4.02c1.12,1.65,1.28,2.22,1.2,2.78c-0.05,0.34-0.22,0.83-0.19,1.63
	c0.02,0.49,0.03,0.78,0.19,1.1c0.08,0.16,0.31,0.53,1.68,1.15c1.07,0.48,1.17,0.36,1.72,0.72c0.29,0.18,0.92,0.6,1.29,1.34
	c0.29,0.58,0.28,1.08,0.29,1.72c0.02,3.23,0.28,2.95,0.1,4.26c-0.08,0.54-0.22,1.51-0.72,2.68c-0.24,0.58-0.61,1.15-1.34,2.3
	c-0.78,1.23-0.88,1.3-1.39,2.15c-0.49,0.84-0.81,1.37-1.1,2.15c-0.34,0.91-0.58,1.54-0.53,2.39c0.07,1.1,0.59,1.88,0.96,2.44
	c0.73,1.1,1.6,1.7,2.2,2.11c0.59,0.4,1.59,1.07,3.04,1.36c0.54,0.11,3.08,0.63,4.86-0.84c0.25-0.21,1.29-1.12,1.09-1.9
	c-0.09-0.37-0.45-0.66-1.15-1.24c-0.54-0.45-0.82-0.57-0.89-0.93c-0.07-0.31,0.05-0.71,0.32-0.89c0.3-0.2,0.67-0.09,0.86-0.03
	c0.38,0.11,0.48,0.3,0.93,0.61c0.37,0.26,0.66,0.4,1.24,0.66c0.2,0.09,0.69,0.34,1.24,0.48c0.78,0.19,1.35,0.23,2.23,0.29
	c2.41,0.16,2.38,0.21,2.84,0.16c1.12-0.12,1.9-0.46,2.14-0.57c0.65-0.3,1.36-0.63,1.85-1.4c0.23-0.36,0.57-0.9,0.48-1.47
	c-0.19-1.16-1.98-1.22-5.3-3.22c-0.94-0.57-1.64-1.07-2.14-1.44c-0.04-0.03-0.78-0.57-1.69-1.37c-0.59-0.52-0.88-0.82-1.15-1.24
	c-0.28-0.44-0.63-1.01-0.41-1.44c0.18-0.35,0.66-0.47,0.99-0.48c0.54-0.01,0.84,0.3,1.98,1.18c0.55,0.42,1.11,0.83,1.66,1.24
	c0.28,0.21,0.75,0.57,1.69,1.28c1.25,0.94,1.37,1.03,1.6,1.18c0.46,0.31,0.86,0.54,1.66,0.99c1.06,0.6,1.58,0.9,2.04,1.09
	c0.88,0.35,1.59,0.49,2.07,0.57c1.1,0.2,1.94,0.2,2.52,0.19c1.04-0.01,1.6-0.03,2.33-0.29c0.54-0.19,1.43-0.5,1.97-1.34
	c0.2-0.31,0.31-0.69,0.52-1.44c0.2-0.73,0.31-1.09,0.26-1.5c-0.11-0.76-0.56-1.24-0.77-1.47c-0.51-0.54-0.88-0.57-2.2-1.18
	c-1.06-0.49-0.82-0.48-2.46-1.28c-1.01-0.49-2.07-0.99-2.07-0.99c-0.39-0.16-0.71-0.32-0.97-0.46c-0.25-0.13-0.63-0.33-1.08-0.63
	c-0.37-0.25-0.64-0.46-0.82-0.61c-1.01-0.82-2.21-1.96-2.69-2.41c-2.03-1.92-1.85-1.72-2.35-2.22c-0.36-0.36-0.87-0.89-1.66-1.63
	c-0.27-0.25-0.32-0.29-0.83-0.77c-2-1.86-2.17-2.04-2.43-2.36c-0.78-0.99-0.97-1.62-1.02-1.82c-0.18-0.68-0.12-1.18-0.1-1.37
	c0.07-0.45,0.15-1,0.57-1.31c0.6-0.44,1.47-0.11,1.76,0c0.78,0.29,1.23,0.82,1.63,1.28c0.76,0.87,1.65,1.61,2.36,2.52
	c1.99,2.54,5.81,6.19,9.19,8.71c0.3,0.23,1.84,1.36,4.02,2.49c1.44,0.74,2.25,1.01,2.87,1.18c1.2,0.32,2.19,0.38,2.78,0.41
	c0.85,0.05,1.5,0.08,2.36-0.06c0.79-0.13,1.87-0.33,2.74-1.18c0.31-0.3,0.7-0.68,0.73-1.24c0.01-0.25-0.03-0.75-0.93-1.63
	c-1.08-1.06-2.23-1.52-2.27-1.53c-0.7-0.28-1.16-0.61-7.5-6.73c-2.17-2.1-3.27-3.16-3.86-3.77c-2.08-2.12-3.59-3.9-4.76-5.17
	c-6.1-6.64-5.16-7.14-9.06-10.82c-3.51-3.32-4.23-2.87-8.33-6.89c-1.02-1-2.26-2.29-4.31-3.83c-3.19-2.41-5.05-2.94-6.03-3.16
	c-1.94-0.43-3.45-0.24-3.83-0.19c-1.66,0.23-2.85,0.81-3.54,1.15c-1.18,0.59-1.31,0.87-3.35,2.3c-2.67,1.87-2.66,1.53-4.21,2.78
	c-1.4,1.12-1.61,1.56-3.26,2.78c-1.17,0.87-1.76,1.3-2.39,1.53c-0.52,0.19-1.3,0.39-5.07,0c-1.86-0.19-2.79-0.29-3.16-0.48
	c-2.42-1.25-2.94-4.43-3.02-4.98c-0.16-1.14,0-1.98,0.05-2.2c0.25-1.22,0.83-2.03,1.15-2.49c2.81-4.04,2.7-5.09,4.79-7.66
	c0.15-0.19,0.79-0.97,1.39-2.11c0.15-0.29,0.47-0.92,0.72-1.77c0.29-0.99,0.43-1.48,0.24-1.82c-0.44-0.75-2.03-0.58-3.06-0.48
	c-1.03,0.11-1.09,0.27-2.54,0.53c-0.28,0.05-0.61,0.1-3.06,0.34c-2.05,0.19-1.98,0.17-3.11,0.29c-1.23,0.12-1.69,0.19-3.21,0.34
	c-1.19,0.12-1.91,0.17-2.87,0.1c-1.13-0.09-1.84-0.16-2.06-0.62c-0.25-0.54,0.4-1.33,0.91-1.96c3.25-3.97,4.88-5.96,5.14-6.26
	c1.68-1.92,1.82-2.22,2.78-3.06c0.91-0.79,1.68-1.31,3.45-2.39c3.22-1.98,3.37-1.93,5.39-3.19c3.65-2.27,4.13-3.01,6.06-3.48
	c2.45-0.6,2.68-0.64,2.68-0.64c1.62-0.26,2.62-0.21,3-0.86C84.69,45.71,84.6,45.24,84.5,44.91z"/>
<path class="st3" d="M88.14,16.41c5.98-0.81,8.39-0.79,8.39-0.79c3.59,0.03,5.39,0.04,7.69,0.19c2.05,0.13,5.8,0.37,10.05,1.05
	c2.93,0.47,8.91,1.47,15.8,4.21c6.69,2.67,11.1,5.74,15.83,9.03c4.15,2.89,9.36,6.56,15.06,12.64c6.99,7.45,10.82,14.35,13.02,18.38
	c2.77,5.07,5.81,10.73,7.66,18.89c1.03,4.52,1.25,7.86,1.53,12.51c0.52,8.55,1.05,17.18-1.53,27.57c-2.17,8.73-5.57,14.78-8.17,19.4
	c-2.6,4.63-6.78,11.93-14.55,19.4c-7.1,6.83-13.72,10.45-18.89,13.28c-5.16,2.82-11.54,6.25-20.68,8.43
	c-7.31,1.74-13.35,1.95-16.34,2.04c-4.29,0.13-12.39,0.44-12.51-0.51c-0.07-0.6,3.04-1.18,8.36-3c0,0,7.09-2.42,12.83-5.36
	c5.4-2.76,8.6-5.69,14.65-11.2c4.21-3.84,10.37-9.52,16.37-18.29c3.91-5.71,1.24-3.21,7.18-13.4c1.47-2.53,2.95-4.92,2.11-7.18
	c-0.8-2.15-3.25-2.95-4.88-3.64c-1.49-0.63-2.7-1.35-13.4-12.73c-11.13-11.84-9.48-10.7-13.69-14.74
	c-6.85-6.58-8.39-6.86-13.02-11.3c-0.23-0.22-1.72-1.65-4.02-3.06c-1.6-0.98-2.91-1.77-4.79-2.01c-1.55-0.2-2.76,0.07-4.21,0.38
	c-0.93,0.2-2.38,0.53-4.02,1.44c-0.5,0.28-1.23,0.83-2.68,1.91c-1.64,1.23-2.46,1.85-3.45,2.68c-1.81,1.52-1.85,1.77-2.78,2.3
	c-0.26,0.15-0.78,0.43-3.26,1.15c-4.15,1.2-5.05,1.1-5.65,0.96c-0.59-0.14-1.67-0.39-2.39-1.34c-1.01-1.34-0.57-3.09-0.48-3.45
	c0.39-1.54,1.35-2.2,2.68-3.64c1.57-1.7,2.44-3.18,3.45-4.88c2.4-4.07,1.53-5.21,3.73-7.66c1.61-1.78,3.38-2.63,3.93-2.87
	c0.36-0.16,1.38-0.59,4.21-1.05c2.55-0.41,4.61-0.53,5.74-0.57c4.99-0.2,8.66,0.34,9.57,0.48c1.88,0.29,2.99,0.46,4.5,0.96
	c2.29,0.76,2.96,1.42,6.41,3.35c4.41,2.46,4.41,1.98,7.76,4.02c2.42,1.47,2.88,2.01,4.88,2.97c1.99,0.96,3.49,1.38,5.36,1.91
	c7.32,2.11,9.95,3.08,14.84,3.73c2.82,0.38,4.54,0.4,5.46-0.67c0.82-0.96,0.65-2.42,0.48-3.83c-0.35-2.8-1.46-4.8-1.91-5.65
	c-2.25-4.17-1.39-4.03-3.83-9c-1.32-2.68-4.39-8.93-10.15-15.51c-5.14-5.87-10.01-9.24-14.65-12.45c-4.16-2.88-7.83-5.42-13.31-7.66
	c-2.55-1.04-8-3.05-12.57-4.21c-1.74-0.44-3.44-1.01-5.17-1.5c-2.78-0.79-4.31-1.18-4.28-1.56C86.44,16.65,87.45,16.5,88.14,16.41z"
	/>
<path class="st3" d="M101.41,143.46c0.22-0.83-2.65-1.4-3.51-3.96c-0.49-1.47-0.07-2.85,0-3.06c0.26-0.81,0.73-1.37,1.66-2.49
	c1.11-1.34,1.36-1.31,2.23-2.43c0.56-0.71,1.19-1.52,1.66-2.74c0.16-0.42,0.63-1.74,0.57-3.51c-0.02-0.79-0.08-2.17-0.89-3.64
	c-0.37-0.68-0.89-1.61-1.98-2.04c-0.64-0.25-1.21-0.22-1.6-0.19c-1.54,0.11-2.64,0.99-3.38,1.6c-0.27,0.22-0.45,0.39-2.11,2.3
	c-1,1.15-1.5,1.72-2.36,2.74c-1.04,1.23-1.02,1.23-2.3,2.74c-1.57,1.86-1.65,1.93-2.36,2.81c-0.12,0.15-0.74,0.95-1.98,2.55
	c-0.96,1.24-1.44,1.87-1.6,2.3c-0.5,1.4-0.17,2.69-0.06,3.06c0.43,1.56,1.44,2.46,1.91,2.87c1.17,1.02,2.38,1.33,3.64,1.66
	c1.39,0.36,2.47,0.4,3.83,0.45c1.36,0.05,2.33-0.03,4.21-0.19C99.86,144.05,101.29,143.92,101.41,143.46z"/>
<path class="st3" d="M96.43,117.99c0.34-0.28,1.32-1.14,1.66-2.62c0.28-1.2-0.01-2.17-0.13-2.55c-0.13-0.42-0.57-1.76-1.85-2.62
	c-0.95-0.63-1.85-0.66-3.57-0.7c-1.38-0.04-2.28-0.06-3.32,0.38c-0.61,0.26-1.26,0.84-2.55,1.98c-0.74,0.65-1.25,1.15-2.23,2.11
	c-1.28,1.25-1.92,1.87-2.49,2.49c-1.09,1.2-0.96,1.25-2.23,2.74c-1.6,1.89-1.83,1.83-3.19,3.51c-1.07,1.32-0.87,1.28-1.98,2.62
	c-1.04,1.26-1.42,1.53-1.79,2.36c-0.18,0.41-0.63,1.45-0.45,2.74c0.2,1.46,1.09,2.39,1.85,3.19c0.56,0.59,1.43,1.48,2.87,1.98
	c0.57,0.2,2.11,0.73,3.64,0.13c1.12-0.44,1.68-1.27,2.43-2.3c1.23-1.71,2.62-3.3,3.89-4.98c1.76-2.31,1.98-2.12,6.96-7.66
	C95.01,119.62,95.87,118.64,96.43,117.99z"/>
<path class="st3" d="M73.01,123.68c2.63-2.69,2.18-3.19,4.53-5.43c0.62-0.59,1.44-1.3,2.3-2.55c0.91-1.32,1.09-2.13,1.15-2.62
	c0.06-0.46,0.17-1.38-0.32-2.3c-0.4-0.75-1.01-1.1-1.98-1.66c-0.59-0.34-1.47-0.84-2.74-1.09c-1.69-0.33-3.03-0.02-3.64,0.13
	c-1.33,0.32-2.23,0.85-3.26,1.47c-1.05,0.63-1.74,1.19-2.94,2.17c-0.7,0.58-0.76,0.66-2.87,2.55c-2.29,2.05-2.57,2.27-3,2.94
	c-0.35,0.54-0.97,1.52-1.15,2.94c-0.19,1.53,0.25,2.69,0.57,3.57c0.43,1.15,0.91,2.43,2.23,3.45c0.42,0.32,1.89,1.35,3.83,1.21
	c1.36-0.1,2.26-0.72,3.96-1.91C70.47,125.99,71.59,125.13,73.01,123.68z"/>
<path class="st3" d="M58.52,115.19c0.66-0.64,1.4-1.37,1.66-2.55c0.04-0.18,0.38-1.85-0.57-3.13c-0.49-0.66-0.99-0.76-5.55-1.6
	c-2.36-0.43-3.55-0.64-4.4,0c-0.1,0.08-0.77,0.59-0.96,1.47c-0.28,1.27,0.65,2.38,1.91,3.89c0.83,1,1.53,1.84,2.81,2.49
	c0.8,0.41,2.05,1.05,3.38,0.64C57.5,116.18,57.94,115.75,58.52,115.19z"/>
<g>
</g>
<g>
</g>
<g>
</g>
<g>
</g>
<g>
</g>
<g>
</g>
</svg>
