<svg width="52" height="52" viewBox="0 0 52 52" fill="none" xmlns="http://www.w3.org/2000/svg">
<path d="M26 52C40.3594 52 52 40.3594 52 26C52 11.6406 40.3594 0 26 0C11.6406 0 0 11.6406 0 26C0 40.3594 11.6406 52 26 52Z" fill="#30569D"/>
<path d="M3.67868 24.3751C3.5789 24.3609 3.49337 24.3181 3.4221 24.2326C3.35083 24.147 3.32232 24.0473 3.33657 23.919C3.35083 23.8049 3.39359 23.7194 3.47912 23.6624C3.56464 23.5911 3.66442 23.5626 3.7642 23.5769C3.87824 23.5911 3.97802 23.6339 4.04929 23.7194C4.12056 23.8049 4.16333 23.8905 4.14907 24.0045C4.13482 24.1328 4.09205 24.2183 4.00653 24.2896C3.89249 24.3609 3.79271 24.3894 3.67868 24.3751Z" fill="white"/>
<path d="M5.35968 21.8093C5.2599 22.2654 5.03183 22.5647 4.63271 22.7215L4.2621 22.2797C4.53293 22.1229 4.68973 21.9376 4.73249 21.7095C4.761 21.5955 4.74675 21.4957 4.71824 21.4101C4.68973 21.3246 4.61846 21.2676 4.51868 21.2533C4.43315 21.2391 4.34762 21.2533 4.29061 21.3246C4.21933 21.3959 4.17657 21.4957 4.14806 21.6382L4.09104 21.8948L3.47811 21.7665L3.53512 21.5242C3.54938 21.4244 3.54938 21.3389 3.52087 21.2533C3.49236 21.1821 3.43534 21.1393 3.34982 21.1108C3.26429 21.0966 3.19302 21.1108 3.136 21.1536C3.07898 21.1963 3.03622 21.2676 3.02197 21.3674C2.9792 21.5669 3.05047 21.7522 3.20727 21.9376L2.69411 22.2226C2.58008 22.0944 2.49455 21.9376 2.43754 21.7523C2.39477 21.5669 2.38052 21.3674 2.42328 21.1678C2.4803 20.897 2.59433 20.7117 2.76539 20.5834C2.93644 20.4551 3.15025 20.4123 3.40683 20.4694C3.64916 20.5264 3.83447 20.6832 3.93425 20.954H3.9485C4.1053 20.6689 4.36188 20.5549 4.71824 20.6262C4.97482 20.6832 5.14587 20.8257 5.2599 21.0538C5.38819 21.2819 5.4167 21.5384 5.35968 21.8093Z" fill="white"/>
<path d="M4.20478 19.9847C3.80566 19.8421 3.52057 19.5856 3.33526 19.2292C3.16421 18.8586 3.14996 18.4595 3.2925 18.0318C3.4493 17.6042 3.69162 17.3049 4.04798 17.1196C4.40434 16.9342 4.78921 16.92 5.21684 17.0768C5.63022 17.2193 5.91531 17.4759 6.08636 17.8465C6.25742 18.2171 6.27167 18.602 6.11487 19.0296C5.97233 19.4573 5.71575 19.7566 5.35939 19.9419C5.01728 20.113 4.63241 20.1272 4.20478 19.9847ZM4.43285 19.3147C4.66092 19.4003 4.88899 19.386 5.10281 19.2862C5.31663 19.1864 5.45917 19.0296 5.53044 18.8158C5.61597 18.5592 5.61597 18.3454 5.50193 18.1601C5.3879 17.9606 5.21684 17.8323 4.97452 17.7467C4.7322 17.6612 4.50412 17.6612 4.30456 17.761C4.09075 17.8608 3.9482 18.0176 3.87693 18.2457C3.79141 18.4737 3.80566 18.6875 3.90544 18.8871C4.00522 19.0867 4.19053 19.2292 4.43285 19.3147Z" fill="white"/>
<path d="M7.89775 15.067L7.58416 15.6514L6.55784 15.1097L6.05894 16.0363L7.08525 16.5779L6.77166 17.1624L4.23438 15.8224L4.54797 15.238L5.53152 15.7512L6.03043 14.8246L5.04688 14.3115L5.36047 13.7271L7.89775 15.067Z" fill="white"/>
<path d="M8.42412 14.283L8.03925 14.8247L6.38574 12.1591L6.72785 11.6744L9.79254 12.4014L9.37916 12.9716L8.75197 12.8148L8.08201 13.7413L8.42412 14.283ZM8.09627 12.6437L7.241 12.4299L7.7114 13.1711L8.09627 12.6437Z" fill="white"/>
<path d="M10.5345 11.6033L8.49609 9.55064L9.73623 8.32477L10.1781 8.76665L9.40837 9.52214L9.73623 9.84999C9.77899 9.77871 9.85026 9.69319 9.95004 9.59341C10.1496 9.39385 10.3634 9.29407 10.6057 9.29407C10.8481 9.29407 11.0619 9.37959 11.2472 9.57915C11.461 9.79297 11.5608 10.0353 11.5323 10.2919C11.5038 10.5485 11.3755 10.805 11.1189 11.0616C11.0191 11.1614 10.8908 11.2754 10.7625 11.3895C10.734 11.418 10.6913 11.4607 10.6485 11.4892C10.6057 11.5177 10.5772 11.5463 10.563 11.5605C10.5487 11.5748 10.5487 11.6033 10.5345 11.6033ZM10.3492 10.0781C10.2921 10.1351 10.2351 10.2063 10.1639 10.2919L10.563 10.7052C10.6628 10.6197 10.734 10.5627 10.7483 10.5485C10.9193 10.3774 10.9336 10.2206 10.7911 10.0781C10.7198 10.0068 10.6485 9.97828 10.563 9.96402C10.506 9.96402 10.4204 10.0068 10.3492 10.0781Z" fill="white"/>
<path d="M13.6977 8.8092L12.315 9.89254L10.5332 7.61183L11.8874 6.55701L12.2722 7.04166L11.4312 7.69736L11.7448 8.09648L12.4718 7.52631L12.8567 8.01096L12.1297 8.58113L12.4575 8.99451L13.3128 8.3103L13.6977 8.8092Z" fill="white"/>
<path d="M14.8391 8.13931C14.44 8.38163 14.0551 8.4244 13.6845 8.23909L13.7558 7.66891C14.0551 7.75444 14.2975 7.74019 14.497 7.62615C14.5968 7.56913 14.6681 7.49786 14.6966 7.41234C14.7394 7.32681 14.7251 7.24128 14.6681 7.15576C14.6253 7.08448 14.5541 7.04172 14.4543 7.02747C14.3545 7.02747 14.2547 7.05598 14.1264 7.1415L13.8984 7.28405L13.5705 6.75663L13.7843 6.62834C13.8698 6.57133 13.9269 6.51431 13.9696 6.42878C13.9981 6.35751 13.9981 6.28624 13.9554 6.21497C13.9126 6.14369 13.8556 6.10093 13.7843 6.08668C13.713 6.07242 13.6275 6.10093 13.5562 6.15795C13.3852 6.25773 13.2997 6.44304 13.2854 6.68536L12.7295 6.50005C12.7437 6.329 12.8008 6.15795 12.9005 5.9869C13.0003 5.81584 13.1429 5.68755 13.3139 5.57352C13.542 5.43098 13.7701 5.37396 13.9839 5.41672C14.1977 5.45948 14.3687 5.57352 14.5113 5.80159C14.6396 6.01541 14.6538 6.25773 14.5255 6.51431V6.52856C14.8534 6.44304 15.11 6.55707 15.2953 6.87067C15.4236 7.08448 15.4521 7.32681 15.3523 7.56913C15.2383 7.7972 15.0815 7.98251 14.8391 8.13931Z" fill="white"/>
<path d="M15.3802 6.04396C15.2091 5.6591 15.1949 5.27423 15.3374 4.90361C15.48 4.51875 15.7651 4.24791 16.1784 4.0626C16.5918 3.8773 16.9767 3.84879 17.3473 3.99133C17.7179 4.11962 18.003 4.39046 18.1883 4.80383C18.3593 5.20296 18.3736 5.58782 18.2311 5.95844C18.0885 6.32905 17.8034 6.61414 17.4043 6.78519C16.9909 6.9705 16.6061 6.99901 16.2212 6.85646C15.8363 6.72817 15.5655 6.45734 15.3802 6.04396ZM16.0216 5.74462C16.1214 5.97269 16.2782 6.12949 16.492 6.21502C16.7058 6.30054 16.9197 6.30054 17.1335 6.20076C17.3758 6.08673 17.5326 5.92993 17.5896 5.73037C17.6609 5.51655 17.6324 5.28848 17.5326 5.06041C17.4328 4.81809 17.2618 4.66129 17.0622 4.57576C16.8484 4.49024 16.6346 4.50449 16.4208 4.59002C16.1927 4.6898 16.0501 4.8466 15.9789 5.06041C15.8933 5.28848 15.9076 5.51655 16.0216 5.74462Z" fill="white"/>
<path d="M21.4389 5.35972L20.7975 5.53077L20.1845 3.33559L19.2152 3.60643L19.8282 5.8016L19.1867 5.97266L18.417 3.1788L20.6692 2.56586L21.4389 5.35972Z" fill="white"/>
<path d="M22.3793 5.18868L21.7236 5.2742L22.5219 2.25227L23.1063 2.16675L24.6885 4.87508L23.9901 4.97486L23.6765 4.40469L22.5361 4.56149L22.3793 5.18868ZM23.3344 3.82026L22.9067 3.05052L22.6929 3.90578L23.3344 3.82026Z" fill="white"/>
<path d="M26.8706 4.10535L27.1271 4.60426C27.0416 4.70404 26.9133 4.78956 26.7423 4.84658C26.5712 4.9036 26.3859 4.94636 26.1864 4.94636C25.7302 4.94636 25.3739 4.81807 25.0888 4.54724C24.8037 4.27641 24.6611 3.90579 24.6611 3.46391C24.6611 3.02202 24.7894 2.66566 25.046 2.38057C25.3026 2.09549 25.6732 1.95294 26.1578 1.95294C26.3432 1.95294 26.5142 1.98145 26.671 2.03847C26.8278 2.09549 26.9561 2.16676 27.0559 2.25228L26.7708 2.75119C26.5712 2.63715 26.3859 2.58013 26.1721 2.58013C25.944 2.58013 25.7445 2.66566 25.5877 2.82246C25.4309 2.97926 25.3596 3.19307 25.3596 3.46391C25.3596 3.72049 25.4451 3.9343 25.6019 4.0911C25.773 4.2479 25.9725 4.33342 26.2434 4.33342C26.4714 4.31917 26.671 4.2479 26.8706 4.10535Z" fill="white"/>
<path d="M29.849 5.20286L29.1933 5.11734L29.3359 3.96273L28.2953 3.83444L28.1528 4.98905L27.4971 4.90352L27.8677 2.03839L28.5234 2.12392L28.3808 3.22151L29.4214 3.34979L29.564 2.25221L30.2197 2.33773L29.849 5.20286Z" fill="white"/>
<path d="M30.6755 3.87732C30.7895 3.46394 31.0318 3.1646 31.3739 2.96503C31.7303 2.76547 32.1294 2.73696 32.557 2.851C32.9847 2.97929 33.3125 3.20736 33.5121 3.54946C33.7117 3.89157 33.7544 4.27644 33.6261 4.71832C33.5121 5.1317 33.2698 5.4453 32.9134 5.63061C32.557 5.81591 32.1722 5.85868 31.7445 5.73039C31.3169 5.6021 30.9891 5.37403 30.7895 5.03192C30.5899 4.70407 30.5472 4.30495 30.6755 3.87732ZM31.3454 4.06262C31.2742 4.30495 31.3027 4.51876 31.4024 4.73258C31.5165 4.93214 31.6733 5.07468 31.9013 5.1317C32.1579 5.20297 32.3717 5.18872 32.557 5.06043C32.7424 4.93214 32.8706 4.76109 32.9419 4.51876C33.0132 4.26218 32.9989 4.04837 32.8849 3.84881C32.7709 3.64925 32.5998 3.52096 32.386 3.44968C32.1579 3.37841 31.9441 3.40692 31.7445 3.52096C31.545 3.63499 31.4167 3.8203 31.3454 4.06262Z" fill="white"/>
<path d="M34.2536 6.57144L33.6406 6.31486L34.781 3.64929L36.3062 4.30499L36.0639 4.87517L35.1516 4.4903L34.2536 6.57144Z" fill="white"/>
<path d="M35.9644 5.70179C36.1782 5.33117 36.4776 5.08885 36.8624 4.98907C37.2473 4.88929 37.6464 4.9463 38.0455 5.17437C38.4304 5.40245 38.687 5.70179 38.801 6.08666C38.9151 6.47152 38.858 6.85639 38.63 7.24126C38.4162 7.61188 38.1026 7.8542 37.7177 7.95398C37.3328 8.05376 36.9337 7.99674 36.5488 7.76867C36.164 7.5406 35.9074 7.24126 35.7933 6.85639C35.6793 6.48578 35.7363 6.10091 35.9644 5.70179ZM36.5631 6.05815C36.4348 6.27196 36.4063 6.48578 36.4633 6.71385C36.5203 6.94192 36.6486 7.11297 36.8482 7.22701C37.0762 7.3553 37.2901 7.39806 37.5039 7.32679C37.7177 7.25552 37.8887 7.11297 38.017 6.8849C38.1453 6.65683 38.1881 6.42876 38.1311 6.21495C38.0741 5.98688 37.9458 5.81582 37.7319 5.70179C37.5181 5.5735 37.3043 5.54499 37.0905 5.61626C36.8624 5.68753 36.6914 5.83008 36.5631 6.05815Z" fill="white"/>
<path d="M40.9111 9.94975L40.7828 10.4914C40.6545 10.5057 40.4977 10.4914 40.3266 10.4201C40.1556 10.3631 39.9988 10.2633 39.842 10.1351C39.4999 9.84997 39.3146 9.50786 39.2718 9.10874C39.2433 8.70961 39.3573 8.35325 39.6567 8.01115C39.9418 7.6833 40.2696 7.48374 40.6545 7.44097C41.0394 7.39821 41.41 7.5265 41.7806 7.8401C41.9231 7.95413 42.0372 8.08242 42.1227 8.22497C42.2082 8.36751 42.251 8.51005 42.2652 8.63834L41.7236 8.82365C41.6523 8.60983 41.5383 8.43878 41.3815 8.31049C41.1962 8.15369 41.0109 8.09668 40.7828 8.11093C40.569 8.12518 40.3694 8.23922 40.1984 8.45304C40.0416 8.6526 39.956 8.86641 39.9703 9.09448C39.9845 9.32255 40.0986 9.52211 40.2981 9.69317C40.4834 9.84997 40.683 9.93549 40.9111 9.94975Z" fill="white"/>
<path d="M42.0646 12.2589L40.8672 10.9761L42.9768 8.99469L44.1457 10.2491L43.6896 10.6767L42.9626 9.90697L42.592 10.2491L43.2334 10.9333L42.7773 11.3609L42.1358 10.6767L41.751 11.0331L42.5064 11.8313L42.0646 12.2589Z" fill="white"/>
<path d="M43.5903 12.6296L42.8063 13.214L42.4072 12.6866L44.7307 10.9618C44.802 11.0616 44.8875 11.1756 44.9873 11.2896C45.087 11.4179 45.1726 11.532 45.2724 11.6603C45.5147 11.9881 45.6145 12.2874 45.586 12.544C45.5574 12.8006 45.4292 13.0144 45.2011 13.1712C44.9873 13.328 44.7449 13.385 44.4741 13.3423C44.2033 13.2995 43.9752 13.1427 43.7899 12.8861C43.6901 12.7721 43.6188 12.6866 43.5903 12.6296ZM44.802 12.0879C44.802 12.0879 44.7877 12.0736 44.7735 12.0594C44.7592 12.0451 44.7307 12.0166 44.7022 11.9739C44.6737 11.9311 44.6452 11.9026 44.6167 11.8598L44.0892 12.2589C44.1463 12.3587 44.2033 12.4442 44.246 12.5155C44.3173 12.601 44.3886 12.6581 44.4884 12.6866C44.5739 12.7151 44.6737 12.6866 44.7735 12.6153C44.9588 12.4728 44.9588 12.3017 44.802 12.0879Z" fill="white"/>
<path d="M43.875 14.7107L46.3695 13.2852C46.5406 13.556 46.6974 13.8126 46.8257 14.0264C46.9825 14.2973 47.0537 14.5396 47.0252 14.7534C46.9967 14.953 46.8827 15.124 46.6831 15.2238C46.4408 15.3664 46.1985 15.3806 45.9561 15.2523H45.9419C45.9561 15.3806 45.9419 15.5089 45.8849 15.6372C45.8279 15.7655 45.7281 15.8653 45.5713 15.9508C45.3147 16.0933 45.0724 16.1218 44.8443 16.0221C44.6162 15.9223 44.4167 15.737 44.2456 15.4519C44.0746 15.1098 43.9463 14.8674 43.875 14.7107ZM45.3432 14.9387L45.2149 14.7107L44.7445 14.9815C44.7588 15.0385 44.7873 15.1098 44.83 15.181C44.9583 15.4091 45.1151 15.4661 45.2862 15.3664C45.443 15.2808 45.4572 15.1383 45.3432 14.9387ZM46.284 14.3258C46.2555 14.283 46.227 14.226 46.17 14.1547L45.7138 14.4113L45.8279 14.5966C45.9276 14.7677 46.0559 14.8104 46.227 14.7249C46.2982 14.6821 46.341 14.6251 46.341 14.5539C46.3553 14.4826 46.3268 14.4113 46.284 14.3258Z" fill="white"/>
<path d="M47.4385 17.9036L45.2861 17.3904L45.0723 16.8488L47.7521 15.7654L47.9944 16.3784L46.3266 17.0626L48.4791 17.5758L48.6929 18.1174L46.0131 19.2008L45.7707 18.5878L47.4385 17.9036Z" fill="white"/>
<path d="M47.4524 21.567L47.039 21.9376C46.925 21.8806 46.811 21.7666 46.7112 21.624C46.6114 21.4672 46.5401 21.3104 46.4831 21.1109C46.3691 20.669 46.4118 20.2841 46.6114 19.942C46.8109 19.5999 47.1245 19.3718 47.5664 19.2578C47.9941 19.1438 48.3647 19.1865 48.7068 19.3718C49.0489 19.5571 49.277 19.885 49.391 20.3554C49.4337 20.5264 49.448 20.6975 49.4337 20.8685C49.4195 21.0396 49.3767 21.1679 49.3197 21.2819L48.7638 21.1251C48.8351 20.9113 48.8351 20.6975 48.7923 20.5122C48.7353 20.2841 48.607 20.1131 48.4217 19.999C48.2364 19.885 48.0083 19.8707 47.7375 19.942C47.4952 19.999 47.3099 20.1416 47.1816 20.3411C47.0675 20.5407 47.039 20.7688 47.096 21.0111C47.1531 21.2249 47.2813 21.4102 47.4524 21.567Z" fill="white"/>
<path d="M46.8551 22.6503L46.7695 21.9946L49.7915 22.8356L49.8627 23.4201L47.1401 24.9595L47.0546 24.2611L47.6248 23.9475L47.4823 22.8071L46.8551 22.6503ZM48.2092 23.6339L48.979 23.2205L48.1237 22.9924L48.2092 23.6339Z" fill="white"/>
<path d="M48.3798 25.715C48.4796 25.715 48.5651 25.7578 48.6506 25.8291C48.7219 25.9146 48.7646 26.0144 48.7646 26.1284C48.7646 26.2424 48.7219 26.328 48.6506 26.3992C48.5793 26.4705 48.4796 26.5133 48.3798 26.5133C48.2657 26.5133 48.166 26.4705 48.0804 26.3992C47.9949 26.328 47.9521 26.2282 47.9521 26.1142C47.9521 25.9859 47.9949 25.8861 48.0804 25.8148C48.166 25.7435 48.2657 25.715 48.3798 25.715Z" fill="white"/>
<path d="M13.071 42.6634C13.1423 42.5779 13.2278 42.5351 13.3419 42.5351C13.4559 42.5209 13.5557 42.5637 13.6554 42.6349C13.741 42.7062 13.7837 42.7917 13.798 42.9058C13.8122 43.0198 13.7837 43.1053 13.7125 43.1908C13.6412 43.2764 13.5414 43.3334 13.4416 43.3476C13.3276 43.3619 13.2278 43.3334 13.1423 43.2621C13.0425 43.1766 12.9997 43.0911 12.9855 42.977C12.957 42.8487 12.9997 42.749 13.071 42.6634Z" fill="white"/>
<path d="M16.1641 45.4287L16.1213 45.9846C15.993 46.0274 15.8362 46.0274 15.6652 45.9846C15.4941 45.9419 15.3231 45.8706 15.152 45.7708C14.7671 45.5285 14.5391 45.2292 14.4393 44.8443C14.3538 44.4594 14.425 44.0745 14.6531 43.7039C14.8812 43.3333 15.1805 43.1052 15.5511 43.0055C15.9217 42.9057 16.3209 42.977 16.72 43.2335C16.8768 43.3333 17.0051 43.4474 17.1049 43.5756C17.2046 43.7039 17.2759 43.8322 17.3044 43.9605L16.7913 44.2313C16.6915 44.0318 16.5489 43.875 16.3779 43.7752C16.1783 43.6469 15.9788 43.6184 15.7649 43.6612C15.5511 43.7039 15.3801 43.8465 15.2375 44.0888C15.1092 44.3026 15.0665 44.5307 15.1092 44.7588C15.1663 44.9868 15.2945 45.1579 15.5226 45.3004C15.7222 45.3859 15.936 45.443 16.1641 45.4287Z" fill="white"/>
<path d="M18.0174 44.6733L17.2191 44.3169L17.4757 43.7468L19.6709 44.7303L19.4143 45.3005L18.616 44.9441L17.6895 47.0253L17.0908 46.7544L18.0174 44.6733Z" fill="white"/>
<path d="M19.2011 46.113C19.3151 45.6996 19.5432 45.4003 19.8995 45.2007C20.2559 45.0011 20.655 44.9584 21.0826 45.0867C21.5245 45.215 21.8381 45.443 22.0377 45.7851C22.2373 46.1272 22.28 46.5121 22.166 46.954C22.0519 47.3674 21.8096 47.681 21.4533 47.8663C21.0969 48.0516 20.712 48.0943 20.2844 47.9803C19.8568 47.852 19.5289 47.6239 19.3294 47.2818C19.1155 46.9397 19.0728 46.5549 19.2011 46.113ZM19.871 46.3125C19.7998 46.5549 19.8283 46.7687 19.9423 46.9825C20.0563 47.1821 20.2131 47.3246 20.4412 47.3816C20.6978 47.4529 20.9116 47.4244 21.0969 47.3103C21.2822 47.1821 21.4105 47.011 21.4818 46.7544C21.553 46.4978 21.5388 46.284 21.4248 46.0845C21.3107 45.8849 21.1397 45.7566 20.9116 45.6853C20.6835 45.6141 20.4697 45.6426 20.2701 45.7566C20.0706 45.8707 19.9423 46.056 19.871 46.3125Z" fill="white"/>
<path d="M24.9309 48.7215L24.2752 48.6502L24.5175 46.3838L23.5054 46.284L23.2631 48.5504L22.6074 48.4792L22.9068 45.5998L25.2302 45.8421L24.9309 48.7215Z" fill="white"/>
<path d="M28.7937 47.7523L29.093 48.2227C29.0218 48.3367 28.8935 48.4222 28.7224 48.5078C28.5514 48.579 28.3803 48.636 28.1808 48.6503C27.7389 48.6931 27.354 48.5933 27.0547 48.351C26.7411 48.1086 26.57 47.7523 26.5272 47.3104C26.4845 46.8827 26.5843 46.5121 26.8123 46.1985C27.0547 45.8992 27.411 45.7139 27.8814 45.6711C28.0667 45.6569 28.2378 45.6569 28.3946 45.6996C28.5514 45.7424 28.6939 45.7994 28.7937 45.8849L28.5514 46.4124C28.3518 46.3126 28.1522 46.2698 27.9527 46.2983C27.7246 46.3268 27.5393 46.4124 27.3968 46.5834C27.2542 46.7545 27.2115 46.9683 27.24 47.2534C27.2685 47.5099 27.3683 47.7095 27.5393 47.8521C27.7104 47.9946 27.9384 48.0516 28.195 48.0374C28.4088 47.9946 28.6084 47.9091 28.7937 47.7523Z" fill="white"/>
<path d="M29.1497 47.0681C29.0499 46.6547 29.1069 46.2698 29.3065 45.9277C29.5203 45.5856 29.8481 45.3575 30.29 45.2435C30.7319 45.1437 31.1168 45.1865 31.4589 45.386C31.801 45.5856 32.0291 45.8992 32.1431 46.3411C32.2429 46.7687 32.1859 47.1536 31.972 47.4814C31.7582 47.8235 31.4304 48.0516 31.0027 48.1514C30.5608 48.2512 30.176 48.2084 29.8339 48.0088C29.4775 47.8235 29.2637 47.5099 29.1497 47.0681ZM29.8339 46.9113C29.8909 47.1536 30.0192 47.3389 30.2187 47.4672C30.4183 47.5955 30.6179 47.624 30.8459 47.567C31.1025 47.5099 31.2878 47.3817 31.3876 47.1821C31.4874 46.9825 31.5159 46.7687 31.4589 46.5121C31.4019 46.2556 31.2736 46.0703 31.074 45.9562C30.8744 45.8422 30.6606 45.7994 30.4326 45.8564C30.1902 45.9135 30.0192 46.0417 29.9051 46.2413C29.8054 46.4266 29.7769 46.6547 29.8339 46.9113Z" fill="white"/>
<path d="M33.6116 44.1744L34.2246 43.9178L34.2816 47.0253L33.8112 47.2249L31.6445 44.9727L32.3002 44.7018L33.6972 46.1843L33.6116 44.1744Z" fill="white"/>
<path d="M36.4056 45.9704L35.8212 46.284L34.4385 43.7468L35.0229 43.4332L36.4056 45.9704Z" fill="white"/>
<path d="M37.3318 45.443L37.2748 45.4857L35.5928 43.1338L35.6355 43.1053C35.7353 43.034 35.8494 42.9485 35.9634 42.8629C36.0062 42.8344 36.0632 42.7917 36.1202 42.7489C36.1772 42.7061 36.22 42.6776 36.2485 42.6491C36.277 42.6206 36.3055 42.6064 36.3197 42.5921C36.7616 42.2785 37.175 42.1502 37.5456 42.2215C37.9162 42.2785 38.2298 42.4923 38.4722 42.8202C38.7145 43.1623 38.8143 43.5472 38.7287 43.932C38.6575 44.3311 38.4009 44.6733 37.9733 44.9868C37.8877 45.0439 37.7879 45.1151 37.6739 45.1864C37.6026 45.2577 37.4744 45.3432 37.3318 45.443ZM36.6904 43.1053C36.6048 43.1623 36.5336 43.2193 36.5051 43.2621L37.4601 44.602C37.5314 44.5592 37.5884 44.5165 37.6597 44.4737C37.902 44.3026 38.0445 44.1031 38.0873 43.8893C38.1301 43.6754 38.073 43.4474 37.9162 43.2336C37.7737 43.0197 37.5884 42.9057 37.3603 42.8915C37.1322 42.8772 36.9184 42.9342 36.6904 43.1053Z" fill="white"/>
<path d="M39.3986 42.2358C39.3273 42.1645 39.2988 42.0647 39.2988 41.9507C39.2988 41.8366 39.3416 41.7369 39.4414 41.6513C39.5126 41.5801 39.6124 41.5373 39.7265 41.5516C39.8405 41.5516 39.926 41.5943 39.9973 41.6656C40.0828 41.7511 40.1256 41.8509 40.1256 41.9507C40.1256 42.0647 40.0971 42.1502 40.0115 42.2358C39.926 42.3213 39.8262 42.3641 39.7122 42.3641C39.5982 42.3641 39.4841 42.3213 39.3986 42.2358Z" fill="white"/>
<path fill-rule="evenodd" clip-rule="evenodd" d="M26.1993 8.55261C25.4866 8.55261 24.9164 9.12279 24.9164 9.83551V19.9704C24.7026 19.9846 24.4888 20.0131 24.275 20.0559V11.489C24.275 10.7763 23.7048 10.2061 22.9921 10.2061C22.2794 10.2061 21.7092 10.7763 21.7092 11.489V21.0394C21.4811 21.182 21.2673 21.3388 21.0677 21.4956V14.7248C21.0677 14.012 20.4976 13.4419 19.7848 13.4419C19.0721 13.4419 18.502 14.012 18.502 14.7248V26.898C18.502 27.6535 18.616 28.409 18.8583 29.1217C19.4427 30.875 20.7114 32.3147 22.3649 33.1272C24.0184 33.9397 25.9285 34.068 27.6818 33.4835C29.3495 32.9133 30.7465 31.7302 31.5875 30.1765L35.9921 21.966C36.4055 21.1962 36.1204 20.2412 35.3506 19.8278C34.5809 19.4144 33.6259 19.6995 33.2125 20.4693L31.559 23.534C31.3166 23.1063 31.0458 22.7072 30.718 22.3366V11.9879C30.718 11.2752 30.1478 10.705 29.4351 10.705C28.7223 10.705 28.1522 11.2752 28.1522 11.9879V20.4835C27.9384 20.398 27.7245 20.3125 27.5107 20.2555V9.83551C27.4822 9.12279 26.912 8.55261 26.1993 8.55261Z" fill="white"/>
<path d="M12.4445 39.955C12.1309 39.955 11.8886 39.8838 11.689 39.7412C11.4894 39.5987 11.3896 39.3991 11.3896 39.1568C11.3896 38.9857 11.4324 38.8289 11.5037 38.7006C11.575 38.5724 11.689 38.4868 11.8315 38.4298V38.4156C11.7175 38.3585 11.632 38.2588 11.5607 38.1447C11.4894 38.0307 11.4609 37.8881 11.4609 37.7313C11.4609 37.5033 11.5464 37.318 11.7318 37.1754C11.9171 37.0329 12.1451 36.9616 12.4302 36.9616C12.7153 36.9616 12.9434 37.0329 13.1287 37.1754C13.314 37.318 13.4138 37.5033 13.4138 37.7313C13.4138 37.8739 13.371 38.0022 13.2997 38.1305C13.2285 38.2588 13.1287 38.3443 13.0004 38.4156V38.4298C13.1429 38.4726 13.257 38.5438 13.3425 38.6721C13.428 38.8004 13.485 38.943 13.485 39.114C13.485 39.3849 13.3853 39.5844 13.2 39.7412C13.0004 39.8838 12.7581 39.955 12.4445 39.955ZM12.473 38.7292H12.4302C12.3304 38.7292 12.2449 38.7577 12.1736 38.8147C12.1024 38.8717 12.0739 38.943 12.0739 39.0428C12.0739 39.1425 12.1024 39.2138 12.1736 39.2708C12.2307 39.3278 12.3304 39.3563 12.4587 39.3563C12.587 39.3563 12.6868 39.3278 12.7438 39.2851C12.8151 39.2423 12.8436 39.1568 12.8436 39.057C12.8436 38.9572 12.8151 38.886 12.7438 38.8289C12.6725 38.7577 12.587 38.7292 12.473 38.7292ZM12.4302 38.102H12.4872C12.5728 38.102 12.644 38.0735 12.7011 38.0307C12.7438 37.9737 12.7723 37.9167 12.7723 37.8454C12.7723 37.6743 12.6725 37.5888 12.4587 37.5888C12.3589 37.5888 12.2877 37.6173 12.2307 37.6601C12.1736 37.7028 12.1451 37.7741 12.1451 37.8454C12.1451 37.9167 12.1736 37.9879 12.2164 38.0307C12.2592 38.0735 12.3304 38.102 12.4302 38.102Z" fill="white"/>
<path d="M14.996 39.057H13.8984V38.4725H14.996V39.057Z" fill="white"/>
<path d="M16.4494 39.955C16.1358 39.955 15.8934 39.8837 15.6939 39.7412C15.4943 39.5986 15.3945 39.3991 15.3945 39.1567C15.3945 38.9857 15.4373 38.8289 15.5086 38.7006C15.5798 38.5723 15.6939 38.4868 15.8364 38.4298V38.4155C15.7224 38.3585 15.6369 38.2587 15.5656 38.1447C15.4943 38.0306 15.4658 37.8881 15.4658 37.7313C15.4658 37.5032 15.5513 37.3179 15.7366 37.1754C15.9219 37.0328 16.15 36.9615 16.4351 36.9615C16.7202 36.9615 16.9483 37.0328 17.1336 37.1754C17.3189 37.3179 17.4187 37.5032 17.4187 37.7313C17.4187 37.8738 17.3759 38.0021 17.3046 38.1304C17.2333 38.2587 17.1336 38.3442 17.0053 38.4155V38.4298C17.1478 38.4725 17.2619 38.5438 17.3474 38.6721C17.4329 38.8004 17.4899 38.9429 17.4899 39.114C17.4899 39.3848 17.3901 39.5844 17.2048 39.7412C17.0053 39.8837 16.763 39.955 16.4494 39.955ZM16.4779 38.7291H16.4351C16.3353 38.7291 16.2498 38.7576 16.1785 38.8146C16.1073 38.8716 16.0787 38.9429 16.0787 39.0427C16.0787 39.1425 16.1073 39.2137 16.1785 39.2708C16.2355 39.3278 16.3353 39.3563 16.4636 39.3563C16.5919 39.3563 16.6917 39.3278 16.7487 39.285C16.82 39.2423 16.8485 39.1567 16.8485 39.0569C16.8485 38.9572 16.82 38.8859 16.7487 38.8289C16.6774 38.7576 16.5919 38.7291 16.4779 38.7291ZM16.4351 38.1019H16.4921C16.5776 38.1019 16.6489 38.0734 16.7059 38.0306C16.7487 37.9736 16.7772 37.9166 16.7772 37.8453C16.7772 37.6743 16.6774 37.5887 16.4636 37.5887C16.3638 37.5887 16.2926 37.6173 16.2355 37.66C16.1785 37.7028 16.15 37.7741 16.15 37.8453C16.15 37.9166 16.1785 37.9879 16.2213 38.0306C16.264 38.0734 16.3353 38.1019 16.4351 38.1019Z" fill="white"/>
<path d="M18.0886 39.5416C17.9176 39.285 17.832 38.9144 17.832 38.4583C17.832 38.0021 17.9176 37.6315 18.0886 37.375C18.2597 37.1184 18.502 36.9758 18.8298 36.9758C19.1577 36.9758 19.4 37.1041 19.5711 37.375C19.7421 37.6315 19.8276 38.0021 19.8276 38.4583C19.8276 38.9287 19.7421 39.285 19.5711 39.5559C19.4 39.8125 19.1577 39.9407 18.8298 39.9407C18.502 39.9407 18.2597 39.8125 18.0886 39.5416ZM18.4877 38.4583C18.4877 39.057 18.6018 39.3563 18.8298 39.3563C18.9439 39.3563 19.0294 39.285 19.0864 39.1568C19.1434 39.0285 19.1577 38.7861 19.1577 38.4583C19.1577 38.1304 19.1292 37.8881 19.0864 37.7598C19.0437 37.6315 18.9439 37.5603 18.8298 37.5603C18.7158 37.5603 18.6303 37.6315 18.5733 37.7741C18.5162 37.9024 18.4877 38.1304 18.4877 38.4583Z" fill="white"/>
<path d="M20.3406 39.5416C20.1695 39.285 20.084 38.9144 20.084 38.4583C20.084 38.0021 20.1695 37.6315 20.3406 37.375C20.5116 37.1184 20.7539 36.9758 21.0818 36.9758C21.4096 36.9758 21.652 37.1041 21.823 37.375C21.9941 37.6315 22.0796 38.0021 22.0796 38.4583C22.0796 38.9287 21.9941 39.285 21.823 39.5559C21.652 39.8125 21.4096 39.9407 21.0818 39.9407C20.7539 39.9407 20.5116 39.8125 20.3406 39.5416ZM20.7397 38.4583C20.7397 39.057 20.8537 39.3563 21.0818 39.3563C21.1958 39.3563 21.2814 39.285 21.3384 39.1568C21.3954 39.0285 21.4096 38.7861 21.4096 38.4583C21.4096 38.1304 21.3811 37.8881 21.3384 37.7598C21.2814 37.6315 21.1958 37.5603 21.0818 37.5603C20.9678 37.5603 20.8822 37.6315 20.8252 37.7741C20.7682 37.9024 20.7397 38.1304 20.7397 38.4583Z" fill="white"/>
<path d="M23.5048 39.057H22.4072V38.4725H23.5048V39.057Z" fill="white"/>
<path d="M23.9615 38.6293L24.161 37.0043H25.5865V37.6172H24.7027L24.6457 37.9878H24.7455C25.002 37.9878 25.2159 38.0733 25.3869 38.2444C25.558 38.4155 25.6435 38.6435 25.6435 38.9286C25.6435 39.2422 25.5437 39.4845 25.3441 39.6698C25.1446 39.8551 24.888 39.9407 24.5887 39.9407C24.4319 39.9407 24.2608 39.9122 24.104 39.8409C23.9472 39.7696 23.8189 39.6698 23.7334 39.5558L24.0755 39.0854C24.1325 39.1567 24.218 39.2137 24.3178 39.2565C24.4176 39.2992 24.5174 39.3277 24.6029 39.3277C24.717 39.3277 24.8025 39.2992 24.8738 39.228C24.945 39.1567 24.9735 39.0712 24.9735 38.9714C24.9735 38.8431 24.9308 38.7433 24.831 38.672C24.7312 38.6008 24.6029 38.558 24.4461 38.558C24.2323 38.558 24.0613 38.5865 23.9615 38.6293Z" fill="white"/>
<path d="M26.0845 38.6293L26.2841 37.0043H27.7095V37.6172H26.8257L26.7687 37.9878H26.8685C27.1251 37.9878 27.3389 38.0733 27.51 38.2444C27.681 38.4155 27.7665 38.6435 27.7665 38.9286C27.7665 39.2422 27.6668 39.4845 27.4672 39.6698C27.2676 39.8551 27.0111 39.9407 26.7117 39.9407C26.5549 39.9407 26.3839 39.9122 26.2271 39.8409C26.0703 39.7696 25.942 39.6698 25.8564 39.5558L26.1986 39.0854C26.2556 39.1567 26.3411 39.2137 26.4409 39.2565C26.5407 39.2992 26.6404 39.3277 26.726 39.3277C26.84 39.3277 26.9255 39.2992 26.9968 39.228C27.0681 39.1567 27.0966 39.0712 27.0966 38.9714C27.0966 38.8431 27.0538 38.7433 26.954 38.672C26.8543 38.6008 26.726 38.558 26.5692 38.558C26.3553 38.558 26.1843 38.5865 26.0845 38.6293Z" fill="white"/>
<path d="M28.1949 38.6293L28.3944 37.0043H29.8199V37.6172H28.9361L28.8791 37.9878H28.9789C29.2354 37.9878 29.4493 38.0733 29.6203 38.2444C29.7914 38.4155 29.8769 38.6435 29.8769 38.9286C29.8769 39.2422 29.7771 39.4845 29.5775 39.6698C29.378 39.8551 29.1214 39.9407 28.8221 39.9407C28.6653 39.9407 28.4942 39.9122 28.3374 39.8409C28.1806 39.7696 28.0523 39.6698 27.9668 39.5558L28.3089 39.0854C28.3659 39.1567 28.4514 39.2137 28.5512 39.2565C28.651 39.2992 28.7508 39.3277 28.8363 39.3277C28.9504 39.3277 29.0359 39.2992 29.1072 39.228C29.1784 39.1567 29.2069 39.0712 29.2069 38.9714C29.2069 38.8431 29.1642 38.7433 29.0644 38.672C28.9646 38.6008 28.8363 38.558 28.6795 38.558C28.4657 38.558 28.2946 38.5865 28.1949 38.6293Z" fill="white"/>
<path d="M31.3583 39.057H30.2607V38.4725H31.3583V39.057Z" fill="white"/>
<path d="M31.9304 38.0876L31.6025 37.5744L32.3865 37.0043H32.8284V39.8979H32.2155V37.888L31.9304 38.0876Z" fill="white"/>
<path d="M33.5691 38.0876L33.2412 37.5744L34.0252 37.0043H34.4671V39.8979H33.8399V37.888L33.5691 38.0876Z" fill="white"/>
<path d="M36.1493 39.057H35.0518V38.4725H36.1493V39.057Z" fill="white"/>
<path d="M36.6187 38.6293L36.8183 37.0043H38.2437V37.6172H37.3599L37.3029 37.9878H37.4027C37.6593 37.9878 37.8731 38.0733 38.0441 38.2444C38.2152 38.4155 38.3007 38.6435 38.3007 38.9286C38.3007 39.2422 38.2009 39.4845 38.0014 39.6698C37.8018 39.8551 37.5452 39.9407 37.2459 39.9407C37.0891 39.9407 36.918 39.9122 36.7612 39.8409C36.6044 39.7696 36.4762 39.6698 36.3906 39.5558L36.7327 39.0854C36.7897 39.1567 36.8753 39.2137 36.9751 39.2565C37.0748 39.2992 37.1746 39.3277 37.2601 39.3277C37.3742 39.3277 37.4597 39.2992 37.531 39.228C37.6022 39.1567 37.6308 39.0712 37.6308 38.9714C37.6308 38.8431 37.588 38.7433 37.4882 38.672C37.3884 38.6008 37.2601 38.558 37.1033 38.558C36.8753 38.558 36.7185 38.5865 36.6187 38.6293Z" fill="white"/>
<path d="M38.6436 38.8716C38.6436 38.6293 38.6863 38.387 38.7718 38.1589C38.8574 37.9308 38.9714 37.7313 39.1282 37.5745C39.4275 37.2466 39.7554 37.0471 40.0832 36.9615L40.3398 37.4319C40.126 37.5032 39.9264 37.6173 39.7554 37.7598C39.5843 37.9023 39.4703 38.0734 39.3848 38.2587C39.4988 38.1589 39.6699 38.1019 39.8979 38.1019C40.1118 38.1019 40.2971 38.1874 40.4539 38.3442C40.6107 38.501 40.6962 38.7148 40.6962 38.9714C40.6962 39.2708 40.5964 39.5131 40.3968 39.6841C40.1973 39.8552 39.9692 39.9407 39.7126 39.9407C39.399 39.9407 39.1425 39.8409 38.9429 39.6271C38.7291 39.4276 38.6436 39.1852 38.6436 38.8716ZM39.2993 38.8859C39.2993 39.0284 39.342 39.1425 39.4133 39.2137C39.4846 39.2993 39.5843 39.3278 39.7126 39.3278C39.8124 39.3278 39.8837 39.2993 39.9407 39.2422C39.9977 39.1852 40.0262 39.114 40.0262 39.0284C40.0262 38.9287 39.9977 38.8431 39.9264 38.7719C39.8694 38.7148 39.7839 38.6721 39.6699 38.6721C39.5131 38.6863 39.3848 38.7433 39.2993 38.8859Z" fill="white"/>
</svg>
